/* XPM */
static char *eb96f7cb020f4b85c31a813304f8e23c44XTkqFvq1fNKxZE[] = {
/* columns rows colors chars-per-pixel */
"32 32 10 1 ",
"  c None",
". c #161922",
"X c #007F00",
"o c #067B21",
"O c #2A3041",
"+ c #333B51",
"@ c #506275",
"# c #3FBF3F",
"$ c green",
"% c #D5C9C9",
/* pixels */
"   ............................ ",
"   .OOOOOOOOOOOOOOOOOOOOOOOOOO. ",
"   .OOOOOOOOOOOOOOOOOOOOOOOOOO. ",
"    .OO+OOO++OOO++OOO++OOO+OO.  ",
"    .@@@@@@@@@@@@@@@@@@@@@@@@.  ",
"    ...%%%%%%++O++O++%%%%%%...  ",
"      .%     %%%%%%%%     %.    ",
"      .%    %             %.    ",
"      .%   %              %.    ",
"      .%  %               %.    ",
"      .% %     %          %.    ",
"      .%      %        oo %.    ",
"      .% XXX %     ooooo# %.    ",
"      .% ##X%    oooooo## %.    ",
"      .% ##%#oooooo###### %.    ",
"      .% #%######$####$$# %.    ",
"      .% %#$##########$$# %.    ",
"      .% ####$$########## %.    ",
"      .% ####$$#####$#### %.    ",
"      .% ################%%.    ",
"      .% #######$#######% %.    ",
"      .% #######$$#####%# %.    ",
"      .%      ######      %.    ",
"     ..%%%%%%        %%%%%%..   ",
"     .@@@@@+@%%%%%%%%@@@+@@@.   ",
"    ..++++++@@+@@@@@@@++++++..  ",
"    .@@@@+@@@@+++++++++@@@@@@.  ",
"    .@@@@+@@@@@@+@@@@@@@@@@@@.  ",
"    .OO++OO++OOOOOOO++OOO++OO.  ",
"   .OOOOOOOOOOOOOOOOOOOOOOOOOO. ",
"   ............................ ",
"   .OOO.OOO.OOO....OOO.OOO.OOO. "
};
