/* XPM */
static char *f56b816829534eccaf9008907940116cccQzxRPoGcLYw05p[] = {
/* columns rows colors chars-per-pixel */
"32 32 109 2 ",
"   c #250D0D",
".  c #2A0E0E",
"X  c #330E0E",
"o  c #3B0E0E",
"O  c #270F10",
"+  c #261212",
"@  c #2C1111",
"#  c #271718",
"$  c #281718",
"%  c #271B1D",
"&  c #2A1B1C",
"*  c #331212",
"=  c #3B1414",
"-  c #321D1D",
";  c #271E20",
":  c #291F20",
">  c #272123",
",  c #292123",
"<  c #342323",
"1  c #3B2528",
"2  c #372828",
"3  c #3B2C2C",
"4  c #2A3236",
"5  c #27373B",
"6  c #29363A",
"7  c #263A3E",
"8  c #2B3A3E",
"9  c #3F3333",
"0  c #353539",
"q  c #313B3F",
"w  c #410F0F",
"e  c #441414",
"r  c #4D1717",
"t  c #471818",
"y  c #4B1818",
"u  c #423535",
"i  c #453939",
"p  c #493C3C",
"a  c #253D41",
"s  c #283E42",
"d  c #3D3F43",
"f  c #1F5056",
"g  c #1C565C",
"h  c #26484D",
"j  c #224D53",
"k  c #2B4C51",
"l  c #344D53",
"z  c #225056",
"x  c #21555B",
"c  c #145E65",
"v  c #195C63",
"b  c #215E65",
"n  c #00646C",
"m  c #0B626A",
"M  c #116067",
"N  c #13636A",
"B  c #1D6068",
"V  c #4C4343",
"C  c #514747",
"Z  c #544C4C",
"A  c #594F4F",
"S  c #5B5353",
"D  c #625959",
"F  c #6B6565",
"G  c #6E6868",
"H  c #726C6C",
"J  c #736C6C",
"K  c #777272",
"L  c #797575",
"P  c #7E7878",
"I  c #807C7C",
"U  c #817D7D",
"Y  c #858080",
"T  c #8A8686",
"R  c #8D8989",
"E  c #8D8A8A",
"W  c #8F8B8B",
"Q  c #908C8C",
"!  c #9A9797",
"~  c #9E9B9B",
"^  c #A19D9D",
"/  c #A19E9E",
"(  c #A3A1A1",
")  c #A8A5A5",
"_  c #AFADAD",
"`  c #B3B1B1",
"'  c #B6B4B4",
"]  c #B7B5B5",
"[  c #BEBCBC",
"{  c #C0BEBE",
"}  c #C1BFBF",
"|  c #C5C2C2",
" . c #C9C7C7",
".. c #CAC9C9",
"X. c #CCCACA",
"o. c #D4D2D2",
"O. c #D6D5D5",
"+. c #D9D8D8",
"@. c #DBDADA",
"#. c #DEDDDD",
"$. c #DFDEDE",
"%. c #E0DFDF",
"&. c #E1E0E0",
"*. c #E3E2E2",
"=. c #E5E4E4",
"-. c #EAE9E9",
";. c #EBEAEA",
":. c #EFEEEE",
">. c #F6F5F5",
/* pixels */
"  @ @ 0 b n n n g #     . X t     . = X . .   $ x n n n B q X * ",
"@ . 4 v n n n n g #   X o w r .     e w w X   $ x n n n n N 5 @ ",
"= 6 v n n n m j 6 +   X w w t       = o w . . + 6 j m n n n v 5 ",
"d v n n n m z %   + 2 . X o t       * * * @ - . . & z n n n n B ",
"v n n n n j >     $ ' G . @ =       * .   H _ $     % z m n n n ",
"n n n n j ,       9 @.G . = =       * @   H @.3       & h m n n ",
"n n m j ;         S =.S   = *       . @   S =.D         & z m n ",
"m m c >           Y -.C   * @       . .   C ;.U           , B m ",
"7 7 5 +     . . 2 ) &.2   * .         @   3 *.( 2         $ 4 7 ",
"        u E ) { %.>.o.&   * .       . .   < o.:.O.| ^ L 3       ",
"  .   + P X. .` ~ ! H @   =           * . + H T ^ ' { X.K . . . ",
"  X o X - - @ O   O O O . o         . X   .       + + - . X o X ",
". o w o . . O .   . . @ = = X       . * @ .   .   + .   X o w = ",
"= e y = = = = = * @ * * * = X       X o X . . * @ * = * = t r y ",
"* o * * . O                 .       . . .         .   . . * * = ",
"                                                .             . ",
"                                                                ",
"  X . .                     .       . .                     . . ",
"= e t = * = = * . . @ . X X X       X X X . . . . @ * = * = y e ",
". o w o @ @ * * @ @ * * * o *       X X * * @ @ . . @ . * o w o ",
"O X o o X +             . * .       . X   + .         . X o o o ",
"  X X . D Q U F Z V < .   = .       . @ . + 3 i S F P E S . X . ",
"        G [ O.-.:.:.' @   * @         X . - [ -.-.*.$.{ G O     ",
"> > :   O + 3 A L | $.2   * .         .   2 $. .J V u + O   % % ",
"v v f #           W =.9 O * .   .   . @   i *.E O         $ z v ",
"n n c 7           G =.Z . * @   O   . @   A -.F         O 8 N n ",
"n n n N a         C &.F O = =       X @   F %.V       O s v n n ",
"m n n n M a       - | G   * = O     @ @ . J ..&       s v n n n ",
"l N n n n M a O   @ F i @ * =       X @ * p F . O + 8 c n n n N ",
"1 k m n n n M a ,   O . o e t       * o o @     : s v n n n m j ",
"* & h M n n n M j +   X o w r .     = w o X   # z m n n n m j $ ",
". @ $ k N n n n g +   X X o r .   O = o X X   & x n n n m k $ * "
};
