/* XPM */
static char *f3597fd3b9aa4799ba5cc3a4b5d66297fQ7I20saRYd48YPW[] = {
/* columns rows colors chars-per-pixel */
"32 32 112 2 ",
"   c #240D0D",
".  c #250D0D",
"X  c #270D0D",
"o  c #280D0D",
"O  c #290D0D",
"+  c #2A0D0D",
"@  c #2B0D0D",
"#  c #2C0D0D",
"$  c #2D0D0D",
"%  c #2F0D0D",
"&  c #300D0D",
"*  c #310D0D",
"=  c #320D0D",
"-  c #330D0D",
";  c #340D0D",
":  c #360D0D",
">  c #350E0E",
",  c #370E0E",
"<  c #390D0D",
"1  c #3A0D0D",
"2  c #3B0D0D",
"3  c #3B0E0E",
"4  c #3B0F0F",
"5  c #3C0D0D",
"6  c #3F0D0D",
"7  c #3C0E0E",
"8  c #301111",
"9  c #361818",
"0  c #413232",
"q  c #493232",
"w  c #483737",
"e  c #4D3535",
"r  c #4E3B3B",
"t  c #493C3C",
"y  c #4E3C3C",
"u  c #513939",
"i  c #523D3D",
"p  c #533D3D",
"a  c #543F3F",
"s  c #544040",
"d  c #564141",
"f  c #574747",
"g  c #5E4B4B",
"h  c #605656",
"j  c #655757",
"k  c #645959",
"l  c #665A5A",
"z  c #675C5C",
"x  c #695B5B",
"c  c #6B5C5C",
"v  c #6A5E5E",
"b  c #6C5D5D",
"n  c #6C5F5F",
"m  c #6D6060",
"M  c #746666",
"N  c #7A7272",
"B  c #7C7676",
"V  c #837979",
"C  c #827B7B",
"Z  c #837B7B",
"A  c #877E7E",
"S  c #888080",
"D  c #8B8383",
"F  c #8B8582",
"G  c #918888",
"H  c #968E8C",
"J  c #9B918F",
"K  c #9C908E",
"L  c #9C9290",
"P  c #9E9390",
"I  c #999491",
"U  c #9E9693",
"Y  c #9D9595",
"T  c #9E9795",
"R  c #A19693",
"E  c #A39997",
"W  c #A49997",
"Q  c #A59B98",
"!  c #A69D9B",
"~  c #B7B0AF",
"^  c #B7B2B1",
"/  c #B8B2B1",
"(  c #BAB5B4",
")  c #BBB6B5",
"_  c #BDB5B4",
"`  c #BDB7B6",
"'  c #BFB8B7",
"]  c #BFB9B8",
"[  c #C0B9B8",
"{  c #C0BAB9",
"}  c #C1BBBA",
"|  c #C4BDBC",
" . c #E6E4E4",
".. c #E8E7E7",
"X. c #E9E7E7",
"o. c #EAE8E8",
"O. c #EAE9E9",
"+. c #EDEBEB",
"@. c #EDECEC",
"#. c #EFEDED",
"$. c #F1F0F0",
"%. c #F3F2F2",
"&. c #F4F3F3",
"*. c #F5F3F3",
"=. c #F5F4F4",
"-. c #F7F4F4",
";. c #F7F5F5",
":. c #F8F7F7",
">. c #F9F7F7",
",. c #F9F8F8",
"<. c #FBF9F9",
"1. c white",
/* pixels */
"F I I T T U J U U R R ! W ! R J R E Q W E U P J P P P T K H T I ",
"~ <.;.;.>.>.;.>.>.-.-.>.>.>.%.-.-.;.<.>.;.;.;.;.;.&.>.>.<.;.;.<.",
") #.G A A Z S S A Z A D Z A N B B F Z A Z A Z S Z A S Z D D Y ;.",
"` +.i , 3 7 7 3 7 7 7 7 , , % X   % O , 7 7 7 3 3 3 7 4 4 - m ;.",
"[ +.r 3 3 3 3 < < 5 5 5 7 # . . X   X % 3 3 7 7 3 < < 3 3 3 l ;.",
"[ X.e 7 3 , - - < 5 < 5 < - @ .     X - < 3 7 7 3 3 - - 3 4 j %.",
"[ +.r 3 < - # - 7 5 7 5 < - .         - < 5 5 5 3 - O - 3 3 v &.",
"| O.i 3 5 : # - 6 6 6 5 : # @ . X X X X < 5 6 6 5 , % % 3 3 v ;.",
"` X.i 3 5 3 3 6 6 6 5 < 5 < - # . # : - < 5 5 5 5 5 5 5 5 5 c -.",
"[ +.a 3 7 7 5 6 5 5 5 5 < < : @ @ @ - < < 5 < < 5 5 5 5 < < x -.",
"[ +.a 7 5 < 6 7 < 5 : < < : @ .   . @ : 5 < , < 5 5 6 7 3 3 v -.",
"| $.a 7 7 7 6 7 5 : 5 : < < : @ @ . - < 5 < 3 3 5 6 6 7 3 3 v -.",
"_ +.i 3 3 7 3 3 5 < < 5 : 7 : : # - - < < < < 7 3 3 3 3 3 3 v %.",
"` +.r , - - % % 5 : : < , 3 : 5 : < : < : < : < 3 8 % , - - l %.",
"[ O.r % O O O X : - - : : : < : < : < < 3 - O , % O X % X % j >.",
"[ O.r X X X X X @ @ . @ : : 5 : : < < : - O O % O X   X X X l %.",
"' O.t . . . . . @ . . @ - : : 5 # : < - - . . .   . @     . j %.",
"[ X.w   . . . . @ @ . @ - : 5 : : 3 < < : @ . @ @ . . .   . l %.",
"} O.r - @ @ . @ : - # : : < < : : < < : 5 - @ - : @ @ @ X % l %.",
"] O.r # - - - # < : : < : : 3 , , < : < : < : 5 : @ - - % - j %.",
"[ O.y 3 5 5 < : < 5 5 < : < : : - - : : < < 5 : < : 5 < , 3 l %.",
"[ O.i 3 < 5 6 5 < : : 5 5 : - @ . . - : : : < 5 5 7 6 5 3 3 v %.",
"` X.a 3 < 5 6 6 < : : 5 5 : # . @ @ @ : 5 5 : : 5 7 6 5 3 3 v -.",
"[ X.i 3 5 5 6 7 7 5 5 < < : - . . . - : < 5 < 5 5 7 5 3 , 3 v ;.",
"' #.i 7 3 3 : < 5 5 5 5 5 : : @   @ : 5 < 5 6 < 6 6 < < 5 , v -.",
") X.r 3 3 , - < 6 6 5 6 < # . .   . @ # : 6 5 5 5 < - : 3 3 l -.",
"` X.r 3 < # # - < 6 5 6 : @ @ @   . . # : 6 6 5 5 # # - 3 3 j -.",
"[ O.r 3 < - # : 5 5 < 5 7 3 @ .   . # - 6 5 < 3 5 : - - , 3 l %.",
"( O.i 3 7 < 5 5 3 , 3 < , % X X   . . # 3 3 3 , < 3 , 3 3 3 x %.",
"^ X.r 3 7 < < 7 7 < , 3 , 9 O X   . @ - 7 7 , 3 7 3 3 3 3 , j -.",
"` O.g d u q a a i i i i f f r t 0 t q r r i i r e i r r i e M -.",
") <. .O.X.X.$.+.+.O.O.O.#.O.+.O. . . .O.#.X.X. .O.X. . .#. .+.<."
};
