/* XPM */
static char *b3841aaf087446fad93bacad84dac2a4KhlvYLZYl2AWF0vg[] = {
/* columns rows colors chars-per-pixel */
"32 32 8 1 ",
"  c black",
". c #141413",
"X c #1E1E17",
"o c #28221F",
"O c #28261F",
"+ c #303126",
"@ c #353929",
"# c #4F4C3F",
/* pixels */
"##@@@@@@@@O#@@XX##@@@@@@#O@@X@XX",
"#OOOOOOOOO@OOOO.#OOOOOXOO+.OOOO.",
"@OOOOOOOOOOOOOOX@OOOOXOOOO+OOOOX",
"@OO@OOOXOOOO@OO.@OO@OOOOOOOO@OO.",
"@O.OOO.OOOO.OOO.@O.OOOOOOOO.OOO.",
"@OOOO.+XOXOOOOO.@OOOOOOO.+OOOOO.",
"@OOOX@XXX+O+.OX.@OOOOXO.@OOOOOX.",
"@OOX+OO.@OOO+XO @OOOo@X+OOOOOXO ",
"@OOOOOo@OOXOOOX.@OO.@XOOOOOOo+X.",
"@OOOO.+OOXOOO.+ @OX+O+.OOOO.@OO ",
"XOOOX+OOOOOOX+O.@XOOOO+XOOX+OOO ",
"@OOOOOO+.OOOOOO @OOOOOO+OO+OOOO ",
"XOO@OOOO@.OO@OO XOO@OOOOXOOO@OO ",
"XO.OOOOOO+O.OOO @O.OOOOX@OO.OOO ",
"XOOOOOOOOOOOOOO XOOOOOXOOOOOOOO ",
"X.X..... .      X.X..... .      ",
"##@@@@@@@O@@@XXX##@@@@@O#@@@XXXX",
"#OOOOOOOX+OOOOO.#OOOOO.+OOOOOOO.",
"@OOOOOOX@OOOOOOX@OOOOX+OOOOOOOOX",
"@OO@OOX@OOOO@OO.@OO@OOOOOOOO@OO.",
"@O.OOO+OOOO.OOOX@O.OOOOOOOO.OOO ",
"@OO+.OOOOOOOOOO.@OOOOOOO.+OOOOO.",
"@.OX@.OOOXOX+OO.@OOOOXOo@OOXOOO ",
"O@OOO@OOXO.+OOO.@OOOOOo@OOXOOOO.",
"#OOOOO+XOo@OOOX.@OOOO.@OO.OOOOOo",
"@OOOOOXX.@OOOXO @OOOX+OOX+oOOO.O",
"@OOOOOOX+OOOOOO.@OOXOOOXOX@.O.@.",
"XOOOOOXOOOOOOOO @OOOOOOOXOO@OOO ",
"@OO@OXOOOOOO@OO.XOO@OXOXOOOO+OO ",
"XO.OOO+.OOO.OOO @O.OO@.OOOO.OOO ",
"XOOOOOO+oOOOOOO XOOOOX+.OOOOOOO ",
"X.X.... Oo.     X.X.X.XOo..     "
};
