/* XPM */
static char *_48c4ef6d3a54b8de68db5655aad537bMarFdNE1Y4o7BB43[] = {
/* columns rows colors chars-per-pixel */
"32 32 14 1 ",
"  c black",
". c #141413",
"X c #181817",
"o c #1E1E17",
"O c #1C1C1B",
"+ c #28221F",
"@ c #28261F",
"# c #28271F",
"$ c #322E1D",
"% c #353929",
"& c #373C2C",
"* c #4F4C3F",
"= c #66684C",
"- c #818556",
/* pixels */
"******************************=+",
"******************************=.",
"******************************=+",
"******************************=.",
"******************************=+",
"******************************=.",
"******************************=+",
"******************************=.",
"*******************************.",
"******************************=.",
"*******************************.",
"*******************************.",
"*******************************.",
"*******************************.",
"*******************************.",
"*******************************.",
"*******************************.",
"*************************$-&***.",
"*************************$&&***.",
"*************************$$****.",
"*******************************.",
"============================*=*.",
"                               .",
"O  OO. OO  OO. OO  OO. OO  OO. O",
"%%%%%%%%%#%%%%#%#%#%#%######%#%#",
"ooooooooXooooooooooooooooXoooooo",
"oXoooooXoooooooooooooooXXooooooo",
"Xoo%.oooooo%.oooooo%.ooXoo#%.ooo",
"ooX .oooooX .oooooX .oXoXoX .ooX",
"XoXXooooooXXooooooXXoooXooXX#ooo",
"ooooooooooooooooooooooXoooo##ooo",
".XXXXXX.X.X.......X.X. . .    . "
};
