/* XPM */
static char *_424d2612ed84ebf8db0f44d647abc76epfY3LzAHrD1ckyx[] = {
/* columns rows colors chars-per-pixel */
"32 32 11 1 ",
"  c black",
". c #141413",
"X c #181817",
"o c #1E1E17",
"O c #1C1C1B",
"+ c #28261F",
"@ c #28271F",
"# c #322E1D",
"$ c #353929",
"% c #4F4C3F",
"& c #66684C",
/* pixels */
"###################### O$oooXoX.",
"%%%%%%%%%%%%%%%%%%%%%%  @ooooXo.",
"%%%%%%%%%%%%%%%%%%%&%& .$oooooX.",
"%%%%%%%%%%%%%%%%%%%%#% O$oo..oo.",
"%%%%%%%%%%%%%%%%%%%%%& O$oo$ Xo.",
"%%%%%%%%%%%%%%%%%%%%%&  $oooXXoX",
"%%%%%%%%%%%%%%%%%%%%%&  @oooooo.",
"%%%%%%%%%%%%%%%%%%%%%& O$XoooooX",
"%%%%%%%%%%%%%%%%%%%%%& O$oXoooo.",
"%%%%%%%%%%%%%%%%%%%%%&  $ooooooX",
"%%%%%%%%%%%%%%%%%%%%%& .$ooooooX",
"%%%%%%%%%%%%%%%%%%%%%& O$oo..ooX",
"%%%%%%%%%%%%%%%%%%%%%& O$oo$ XoX",
"%%%%%%%%%%%%%%%%%%%&%&  $XooXXoX",
"%%%%%%%%%%%%%%%%%%%%#&  $oXooooX",
"&&&&&&&&&&%&%&%&%%%%%% O$XoXooo.",
"###################### O$oooXXoX",
"%%%%%%%%%%%%%%%%%%%%%%  $ooooXX.",
"%%%%%%%%%%%%%%%%%%%&%& .$ooooooX",
"%%%%%%%%%%%%%%%%%%%%#% O$oo..oo.",
"%%%%%%%%%%%%%%%%%%%%%& O$oo$ Xo.",
"%%%%%%%%%%%%%%%%%%%%%&  $oooXXoX",
"%%%%%%%%%%%%%%%%%%%%%&  $o@oooo.",
"%%%%%%%%%%%%%%%%%%%%%& O$X@@oooX",
"%%%%%%%%%%%%%%%%%%%%%& O$o@o+oo.",
"%%%%%%%%%%%%%%%%%%%%%&  $oo@o+o.",
"%%%%%%%%%%%%%%%%%%%%%& .$ooooo+.",
"%%%%%%%%%%%%%%%%%%%%%& O$oo..oo.",
"%%%%%%%%%%%%%%%%%%%%%& O$oo$ Xo.",
"%%%%%%%%%%%%%%%%%%%&%&  $oooXXo.",
"%%%%%%%%%%%%%%%%%%%%#&. @oooooo.",
"&&&&&&&&&&%&%&%&%%%%%%OO$Xooooo."
};
