/* XPM */
static char *_597e4a820a74f61c438f06d298b3b88AOn8COdxaQcx3yLD[] = {
/* columns rows colors chars-per-pixel */
"32 32 11 1 ",
"  c black",
". c #141413",
"X c #181817",
"o c #1E1E17",
"O c #1C1C1B",
"+ c #28261F",
"@ c #28271F",
"# c #322E1D",
"$ c #353929",
"% c #4F4C3F",
"& c #66684C",
/* pixels */
".XXXXXX.X.X.......X.X. . .    . ",
"ooooooooooooooooooooooXoooo@@ooo",
"XoXXooooooXXooooooXXoooXooXX@ooo",
"ooX .oooooX .oooooX .oXoXoX .ooX",
"Xoo$.oooooo$.oooooo$.ooXoo@$.ooo",
"oXoooooXoooooooooooooooXXooooooo",
"ooooooooXooooooooooooooooXoooooo",
"$$$$$$$$$@$$$$@$@$@$@$@@@@@@$@$@",
"O  OO. OO  OO. OO  OO. OO  OO. O",
"                               .",
"%&&&&&&&&&&&%&%#%&&&&&&&&&&&%&%#",
"%#%%%%%%%%%%#%%#%#%%%%%%%%%%#%%#",
"%%&%%%%%%%%%%&%#%%&%%%%%%%%%%&%#",
"%%%%%%%%%%%%%%%#%%%%%%%%%%%%%%%#",
"%%%%%%%%%%%%%%%#%%%%%%%%%%%%%%%#",
"%%%%%%%%%%%%%%%#%%%%%%%%%%%%%%%#",
"&%%%%%%%%%%%%%%#&%%%%%%%%%%%%%%#",
"%%%%%%%%%%%%%%%#%%%%%%%%%%%%%%%#",
"&%%%%%%%%%%%%%%#&%%%%%%%%%%%%%%#",
"%%%%%%%%%%%%%%%#%%%%%%%%%%%%%%%#",
"&%%%%%%%%%%%%%%#&%%%%%%%%%%%%%%#",
"%%%%%%%%%%%%%%%#%%%%%%%%%%%%%%%#",
"&%%%%%%%%%%%%%%#&%%%%%%%%%%%%%%#",
"&%%%%%%%%%%%%%%#&%%%%%%%%%%%%%%#",
"&%%%%%%%%%%%%%%#&%%%%%%%%%%%%%%#",
"&%%%%%%%%%%%%%%#&%%%%%%%%%%%%%%#",
"&%%%%%%%%%%%%%%#&%%%%%%%%%%%%%%#",
"&%%%%%%%%%%%%%%#&%%%%%%%%%%%%%%#",
"&%%%%%%%%%%%%%%#&%%%%%%%%%%%%%%#",
"&%%%%%%%%%%%%%%#&%%%%%%%%%%%%%%#",
"&%%%%%%%%%%%%%%#&%%%%%%%%%%%%%%#",
"&%%%%%%%%%%%%%%#&%%%%%%%%%%%%%%#"
};
