/* XPM */
static char *_c3c469a8134460bd3b8008ff60cd6e79Vysz1kyucGQMhUi[] = {
/* columns rows colors chars-per-pixel */
"32 32 11 1 ",
"  c black",
". c #141413",
"X c #181817",
"o c #1E1E17",
"O c #1C1C1B",
"+ c #28261F",
"@ c #28271F",
"# c #322E1D",
"$ c #353929",
"% c #4F4C3F",
"& c #66684C",
/* pixels */
".XoXooo$O ######################",
".oXoooo@  %%%%%%%%%%%%%%%%%%%%%%",
".Xooooo$. &%&%%%%%%%%%%%%%%%%%%%",
".oo..oo$O %#%%%%%%%%%%%%%%%%%%%%",
".oX $oo$O &%%%%%%%%%%%%%%%%%%%%%",
"XoXXooo$  &%%%%%%%%%%%%%%%%%%%%%",
".oooooo@  &%%%%%%%%%%%%%%%%%%%%%",
"XoooooX$O &%%%%%%%%%%%%%%%%%%%%%",
".ooooXo$O &%%%%%%%%%%%%%%%%%%%%%",
"Xoooooo$  &%%%%%%%%%%%%%%%%%%%%%",
"Xoooooo$. &%%%%%%%%%%%%%%%%%%%%%",
"Xoo..oo$O &%%%%%%%%%%%%%%%%%%%%%",
"XoX $oo$O &%%%%%%%%%%%%%%%%%%%%%",
"XoXXooX$  &%&%%%%%%%%%%%%%%%%%%%",
"XooooXo$  &#%%%%%%%%%%%%%%%%%%%%",
".oooXoX$O %%%%%%&%&%&%&&&&&&&&&&",
"XoXXooo$O ######################",
".XXoooo$  %%%%%%%%%%%%%%%%%%%%%%",
"Xoooooo$. &%&%%%%%%%%%%%%%%%%%%%",
".oo..oo$O %#%%%%%%%%%%%%%%%%%%%%",
".oX $oo$O &%%%%%%%%%%%%%%%%%%%%%",
"XoXXooo$  &%%%%%%%%%%%%%%%%%%%%%",
".oooo@o$  &%%%%%%%%%%%%%%%%%%%%%",
"Xooo@@X$O &%%%%%%%%%%%%%%%%%%%%%",
".oo@o+o$O &%%%%%%%%%%%%%%%%%%%%%",
".o@o@oo$  &%%%%%%%%%%%%%%%%%%%%%",
".@ooooo$. &%%%%%%%%%%%%%%%%%%%%%",
".oo..oo$O &%%%%%%%%%%%%%%%%%%%%%",
".oX $oo$O &%%%%%%%%%%%%%%%%%%%%%",
".oXXooo$  &%&%%%%%%%%%%%%%%%%%%%",
".oooooo@ .&#%%%%%%%%%%%%%%%%%%%%",
".oooooX$OO%%%%%%&%&%&%&&&&&&&&&&"
};
